<svg width="64" height="64" viewBox="0 0 64 64" fill="none" xmlns="http://www.w3.org/2000/svg">
<g clip-path="url(#clip0_1202_31)">
<mask id="mask0_1202_31" style="mask-type:luminance" maskUnits="userSpaceOnUse" x="0" y="0" width="64" height="64">
<path d="M64 0H0V64H64V0Z" fill="white"/>
</mask>
<g mask="url(#mask0_1202_31)">
<path d="M41.7019 17.5768C38.6129 19.6938 31.7939 9.93178 34.7089 7.93378C37.6239 5.93678 57.0269 7.34778 52.8239 10.2278L41.7019 17.5768Z" fill="#3C3C3C"/>
<path d="M14 17.9394C18.5426 11.9118 25.843 8 34.0672 8C47.828 8 59 18.9505 59 32.4381C59 34.4921 58.741 36.4874 58.2531 38.394C53.9225 40.715 49.0249 42 43.8234 42C29.0347 42 16.7028 31.6113 14 17.9394Z" fill="#70647E"/>
<path d="M15.411 21.5989C18.177 21.5989 18.166 30.2729 15.556 30.2729C12.946 30.2729 1.806 21.4349 5.569 21.4349L15.411 21.5989Z" fill="#3C3C3C"/>
<path d="M29.191 43.637C37.7293 43.637 44.651 37.1362 44.651 29.117C44.651 21.0979 37.7293 14.597 29.191 14.597C20.6527 14.597 13.731 21.0979 13.731 29.117C13.731 37.1362 20.6527 43.637 29.191 43.637Z" fill="#FE680C"/>
<path d="M24.701 31.899C28.2748 31.899 31.172 29.0332 31.172 25.498C31.172 21.9629 28.2748 19.097 24.701 19.097C21.1272 19.097 18.23 21.9629 18.23 25.498C18.23 29.0332 21.1272 31.899 24.701 31.899Z" fill="#3C3C3C"/>
<path d="M22.973 27.128C24.3935 27.128 25.545 25.9891 25.545 24.584C25.545 23.179 24.3935 22.04 22.973 22.04C21.5525 22.04 20.401 23.179 20.401 24.584C20.401 25.9891 21.5525 27.128 22.973 27.128Z" fill="white"/>
</g>
<circle cx="34" cy="33" r="22.5" stroke="#3C3C3C" stroke-width="5"/>
</g>
<defs>
<clipPath id="clip0_1202_31">
<rect width="64" height="64" fill="white"/>
</clipPath>
</defs>
</svg>
